<svg width="241" height="31" viewBox="0 0 241 31" fill="none" xmlns="http://www.w3.org/2000/svg">
<path d="M55.6665 24.6433H49.654V13.2879C49.654 11.7537 49.4811 10.6497 48.6519 10.6497C47.8228 10.6497 47.6498 11.7537 47.6498 13.2879V24.6433H41.6418V13.2879C41.6418 11.7537 41.4689 10.6497 40.6397 10.6497C39.8106 10.6497 39.6377 11.7537 39.6377 13.2879V24.6433H33.6252V7.302H39.6421V9.10219C40.03 8.43617 40.5899 7.88674 41.2631 7.51151C41.9364 7.13627 42.6981 6.94905 43.4686 6.96945C45.1092 6.96945 46.5325 7.5636 47.4282 9.26625C47.7889 8.54884 48.3489 7.95063 49.0409 7.54328C49.7329 7.13593 50.5277 6.9367 51.33 6.96945C53.6623 6.96945 55.6709 8.45927 55.6709 12.2148L55.6665 24.6433ZM25.542 15.9837C24.7395 16.6488 23.5335 17.345 23.5335 19.4555C23.5335 20.8744 23.897 21.4552 24.54 21.4552C25.1829 21.4552 25.542 20.8744 25.542 19.4555V15.9837ZM24.6907 6.96945C28.6813 6.96945 31.5545 8.35285 31.5545 12.707V24.6433H25.542V23.1402C24.8991 24.1644 23.7374 24.9581 21.8618 24.9581C20.5716 24.9581 17.5565 24.5147 17.5565 20.0098C17.5565 13.8421 25.5376 15.9571 25.5376 12.206C25.5376 10.6718 25.174 10.0466 24.5311 10.0466C23.8882 10.0466 23.529 10.6718 23.529 12.206V13.1593H17.8225V12.7159C17.8225 8.36172 20.7001 6.97832 24.6907 6.97832V6.96945ZM65.7937 17.6819H71.5046C71.4248 22.7278 68.5117 24.9758 64.4901 24.9758C60.4685 24.9758 57.4755 22.6835 57.4755 17.4824V14.4629C57.4755 9.26182 60.4153 6.96945 64.4901 6.96945C68.5649 6.96945 71.5046 9.26182 71.5046 14.4629V16.2808H63.4924V19.2471C63.4924 20.7769 63.6875 21.8809 64.6408 21.8809C65.5941 21.8809 65.7937 20.7769 65.7937 19.2471V17.6819ZM65.5099 12.6804C65.5099 11.1507 65.337 10.0466 64.5078 10.0466C63.6787 10.0466 63.5057 11.1507 63.5057 12.6804V13.5982H65.5099V12.6804ZM15.8494 11.0221V10.1353C15.8494 4.13614 12.2667 2.51331 8.31162 2.51331C4.35651 2.51331 0.835938 4.64605 0.835938 10.6497V16.8173C0.835938 20.8567 2.54745 24.9758 7.12775 24.9758C9.22945 24.9758 10.5774 23.9604 11.1582 22.9983L11.6327 24.661H15.8183V13.1593H8.54662V16.8661H10.1828V17.642C10.1828 19.5265 9.92115 21.2513 8.73285 21.2513C7.54454 21.2513 7.28737 19.5265 7.28737 17.642V9.74069C7.28737 7.90502 7.40709 6.22011 8.32936 6.22011C9.25162 6.22011 9.37134 7.90502 9.37134 9.74069V11.0221H15.8494Z" fill="white"/>
<path d="M97.4346 24.2797C96.3431 24.7408 95.1699 24.9775 93.985 24.9758C91.1339 24.9758 89.4535 23.353 89.4535 20.2669V9.5988H88.243V7.302H89.4535V4.95199H95.4615V7.302H97.4346V9.5988H95.4615V19.9965C95.4615 21.1183 95.661 22.1026 96.6321 22.1026C96.9159 22.1021 97.1939 22.0223 97.4346 21.872V24.2841V24.2797ZM81.1486 9.5988H87.1123V8.66766C87.1123 4.40661 84.2657 2.51331 80.0446 2.51331C76.0096 2.51331 72.9768 4.7702 72.9768 8.72087C72.9768 16.1256 81.357 14.485 81.357 19.5087C81.357 20.8389 80.8382 21.2823 80.2086 21.2823C79.579 21.2823 79.0647 20.8389 79.0647 19.5087V17.6731H73.0478V18.5599C73.0478 23.0071 75.9431 24.9758 80.2973 24.9758C84.4564 24.9758 87.5602 22.6613 87.5602 18.52C87.5602 10.2683 78.9405 12.5563 78.9405 7.98927C78.9405 6.65907 79.477 6.21567 80.0446 6.21567C80.6121 6.21567 81.1486 6.65907 81.1486 7.98927V9.5988ZM106.272 12.7026C106.272 11.1729 106.099 10.0688 105.269 10.0688C104.44 10.0688 104.267 11.1729 104.267 12.7026V19.2471C104.267 20.7769 104.44 21.8809 105.269 21.8809C106.099 21.8809 106.272 20.7769 106.272 19.2471V12.7026ZM105.269 6.99162C109.344 6.99162 112.284 9.28399 112.284 14.485V17.4868C112.284 22.6879 109.344 24.9803 105.269 24.9803C101.195 24.9803 98.2549 22.6879 98.2549 17.4868V14.4629C98.2549 9.26182 101.19 6.96945 105.269 6.96945V6.99162ZM122.119 13.2879C122.119 11.7537 121.946 10.6497 121.116 10.6497C120.287 10.6497 120.114 11.7537 120.114 13.2879V18.6441C120.114 20.1738 120.287 21.2779 121.116 21.2779C121.946 21.2779 122.119 20.1738 122.119 18.6441V13.2879ZM123.644 6.96945C126.486 6.96945 128.131 9.26182 128.131 14.4629V17.4647C128.131 22.6657 126.486 24.9581 123.644 24.9581C122.947 24.9618 122.259 24.7953 121.641 24.4731C121.023 24.1509 120.493 23.6827 120.097 23.1091V28.9664H114.12V7.302H120.132V8.81842C120.528 8.24484 121.058 7.77662 121.677 7.45441C122.295 7.1322 122.982 6.96573 123.679 6.96945H123.644ZM127.351 7.93162C127.407 8.02959 127.488 8.11075 127.586 8.16662C127.684 8.22727 127.798 8.25807 127.914 8.2553C128.026 8.25678 128.136 8.22765 128.233 8.17106C128.331 8.11519 128.412 8.03402 128.468 7.93606C128.527 7.83835 128.557 7.72637 128.557 7.61238C128.558 7.49826 128.528 7.386 128.47 7.28759C128.412 7.18919 128.329 7.10834 128.229 7.0537C128.133 6.99767 128.024 6.96856 127.914 6.96945C127.801 6.97008 127.689 6.99904 127.59 7.0537C127.491 7.10987 127.409 7.19284 127.355 7.29313C127.297 7.38946 127.266 7.49986 127.266 7.61238C127.267 7.72421 127.296 7.83405 127.351 7.93162ZM127.435 7.33747C127.47 7.27391 127.518 7.21809 127.575 7.17329C127.633 7.12848 127.699 7.09561 127.769 7.0766C127.839 7.0576 127.912 7.05284 127.984 7.06261C128.057 7.07239 128.126 7.09649 128.189 7.13351C128.273 7.18263 128.344 7.25293 128.393 7.33747C128.442 7.42142 128.468 7.51712 128.468 7.61459C128.468 7.71207 128.442 7.80776 128.393 7.89172C128.342 7.97403 128.272 8.04258 128.189 8.09125C128.106 8.14223 128.011 8.16839 127.914 8.16662C127.815 8.16802 127.719 8.14191 127.634 8.09125C127.55 8.04384 127.48 7.97502 127.43 7.89172C127.383 7.80641 127.358 7.71009 127.36 7.61238C127.358 7.51541 127.384 7.41998 127.435 7.33747ZM128.104 7.29313C128.044 7.24919 127.97 7.2287 127.896 7.23549H127.701V7.98927H127.812V7.68332H127.905L128.087 7.98483H128.211L128.016 7.65672C128.061 7.6403 128.102 7.61105 128.131 7.57247C128.162 7.52991 128.176 7.47775 128.171 7.42561C128.166 7.37347 128.142 7.32485 128.104 7.2887V7.29313ZM127.812 7.33747H127.887C127.932 7.33442 127.976 7.34362 128.016 7.36408C128.029 7.37437 128.04 7.38787 128.047 7.40335C128.054 7.41884 128.057 7.43582 128.056 7.45275C128.056 7.54143 127.998 7.58134 127.887 7.58134H127.812V7.33747Z" fill="white"/>
<mask id="path-2-inside-1_9976_24606" fill="white">
<path fill-rule="evenodd" clip-rule="evenodd" d="M140 1.35107C137.791 1.35107 136 3.14194 136 5.35107V26.3511C136 28.5602 137.791 30.3511 140 30.3511H184C186.209 30.3511 188 28.5602 188 26.3511V5.35107C188 3.14194 186.209 1.35107 184 1.35107H140ZM155.369 21.3555H152.31L148.238 15.208V21.3555H145.18V10.3555H148.238L152.31 16.581V10.3555H155.369V21.3555ZM166.909 10.3555V12.7895H162.509V14.7243H165.755V17.0491H162.509V21.3555H159.451V10.3555H166.909ZM178.823 12.7895V10.3555H169.929V12.7895H172.831V21.3555H175.889V12.7895H178.823Z"/>
</mask>
<path fill-rule="evenodd" clip-rule="evenodd" d="M140 1.35107C137.791 1.35107 136 3.14194 136 5.35107V26.3511C136 28.5602 137.791 30.3511 140 30.3511H184C186.209 30.3511 188 28.5602 188 26.3511V5.35107C188 3.14194 186.209 1.35107 184 1.35107H140ZM155.369 21.3555H152.31L148.238 15.208V21.3555H145.18V10.3555H148.238L152.31 16.581V10.3555H155.369V21.3555ZM166.909 10.3555V12.7895H162.509V14.7243H165.755V17.0491H162.509V21.3555H159.451V10.3555H166.909ZM178.823 12.7895V10.3555H169.929V12.7895H172.831V21.3555H175.889V12.7895H178.823Z" fill="white"/>
<path d="M152.31 21.3555L151.477 21.9077L151.773 22.3555H152.31V21.3555ZM155.369 21.3555V22.3555H156.369V21.3555H155.369ZM148.238 15.208L149.072 14.6557L147.238 11.8876V15.208H148.238ZM148.238 21.3555V22.3555H149.238V21.3555H148.238ZM145.18 21.3555H144.18V22.3555H145.18V21.3555ZM145.18 10.3555V9.35547H144.18V10.3555H145.18ZM148.238 10.3555L149.075 9.80805L148.779 9.35547H148.238V10.3555ZM152.31 16.581L151.474 17.1284L153.31 19.9365V16.581H152.31ZM152.31 10.3555V9.35547H151.31V10.3555H152.31ZM155.369 10.3555H156.369V9.35547H155.369V10.3555ZM166.909 12.7895V13.7895H167.909V12.7895H166.909ZM166.909 10.3555H167.909V9.35547H166.909V10.3555ZM162.509 12.7895V11.7895H161.509V12.7895H162.509ZM162.509 14.7243H161.509V15.7243H162.509V14.7243ZM165.755 14.7243H166.755V13.7243H165.755V14.7243ZM165.755 17.0491V18.0491H166.755V17.0491H165.755ZM162.509 17.0491V16.0491H161.509V17.0491H162.509ZM162.509 21.3555V22.3555H163.509V21.3555H162.509ZM159.451 21.3555H158.451V22.3555H159.451V21.3555ZM159.451 10.3555V9.35547H158.451V10.3555H159.451ZM178.823 10.3555H179.823V9.35547H178.823V10.3555ZM178.823 12.7895V13.7895H179.823V12.7895H178.823ZM169.929 10.3555V9.35547H168.929V10.3555H169.929ZM169.929 12.7895H168.929V13.7895H169.929V12.7895ZM172.831 12.7895H173.831V11.7895H172.831V12.7895ZM172.831 21.3555H171.831V22.3555H172.831V21.3555ZM175.889 21.3555V22.3555H176.889V21.3555H175.889ZM175.889 12.7895V11.7895H174.889V12.7895H175.889ZM137 5.35107C137 3.69422 138.343 2.35107 140 2.35107V0.351074C137.239 0.351074 135 2.58965 135 5.35107H137ZM137 26.3511V5.35107H135V26.3511H137ZM140 29.3511C138.343 29.3511 137 28.0079 137 26.3511H135C135 29.1125 137.239 31.3511 140 31.3511V29.3511ZM184 29.3511H140V31.3511H184V29.3511ZM187 26.3511C187 28.0079 185.657 29.3511 184 29.3511V31.3511C186.761 31.3511 189 29.1125 189 26.3511H187ZM187 5.35107V26.3511H189V5.35107H187ZM184 2.35107C185.657 2.35107 187 3.69422 187 5.35107H189C189 2.58965 186.761 0.351074 184 0.351074V2.35107ZM140 2.35107H184V0.351074H140V2.35107ZM152.31 22.3555H155.369V20.3555H152.31V22.3555ZM147.404 15.7602L151.477 21.9077L153.144 20.8032L149.072 14.6557L147.404 15.7602ZM149.238 21.3555V15.208H147.238V21.3555H149.238ZM145.18 22.3555H148.238V20.3555H145.18V22.3555ZM144.18 10.3555V21.3555H146.18V10.3555H144.18ZM148.238 9.35547H145.18V11.3555H148.238V9.35547ZM153.147 16.0336L149.075 9.80805L147.401 10.9029L151.474 17.1284L153.147 16.0336ZM151.31 10.3555V16.581H153.31V10.3555H151.31ZM155.369 9.35547H152.31V11.3555H155.369V9.35547ZM156.369 21.3555V10.3555H154.369V21.3555H156.369ZM167.909 12.7895V10.3555H165.909V12.7895H167.909ZM162.509 13.7895H166.909V11.7895H162.509V13.7895ZM163.509 14.7243V12.7895H161.509V14.7243H163.509ZM165.755 13.7243H162.509V15.7243H165.755V13.7243ZM166.755 17.0491V14.7243H164.755V17.0491H166.755ZM162.509 18.0491H165.755V16.0491H162.509V18.0491ZM163.509 21.3555V17.0491H161.509V21.3555H163.509ZM159.451 22.3555H162.509V20.3555H159.451V22.3555ZM158.451 10.3555V21.3555H160.451V10.3555H158.451ZM166.909 9.35547H159.451V11.3555H166.909V9.35547ZM177.823 10.3555V12.7895H179.823V10.3555H177.823ZM169.929 11.3555H178.823V9.35547H169.929V11.3555ZM170.929 12.7895V10.3555H168.929V12.7895H170.929ZM172.831 11.7895H169.929V13.7895H172.831V11.7895ZM173.831 21.3555V12.7895H171.831V21.3555H173.831ZM175.889 20.3555H172.831V22.3555H175.889V20.3555ZM174.889 12.7895V21.3555H176.889V12.7895H174.889ZM178.823 11.7895H175.889V13.7895H178.823V11.7895Z" fill="white" mask="url(#path-2-inside-1_9976_24606)"/>
<path d="M205.318 15.3855C205.887 15.5069 206.345 15.7915 206.69 16.2395C207.035 16.6782 207.208 17.1822 207.208 17.7515C207.208 18.5729 206.919 19.2262 206.34 19.7115C205.771 20.1875 204.973 20.4255 203.946 20.4255H199.368V10.5975H203.792C204.791 10.5975 205.57 10.8262 206.13 11.2835C206.699 11.7409 206.984 12.3615 206.984 13.1455C206.984 13.7242 206.83 14.2049 206.522 14.5875C206.223 14.9702 205.822 15.2362 205.318 15.3855ZM201.762 14.5735H203.33C203.722 14.5735 204.021 14.4895 204.226 14.3215C204.441 14.1442 204.548 13.8875 204.548 13.5515C204.548 13.2155 204.441 12.9589 204.226 12.7815C204.021 12.6042 203.722 12.5155 203.33 12.5155H201.762V14.5735ZM203.526 18.4935C203.927 18.4935 204.235 18.4049 204.45 18.2275C204.674 18.0409 204.786 17.7749 204.786 17.4295C204.786 17.0842 204.669 16.8135 204.436 16.6175C204.212 16.4215 203.899 16.3235 203.498 16.3235H201.762V18.4935H203.526ZM210.991 12.5155V14.5035H214.197V16.3515H210.991V18.5075H214.617V20.4255H208.597V10.5975H214.617V12.5155H210.991ZM223.241 10.5975V12.5155H220.637V20.4255H218.243V12.5155H215.639V10.5975H223.241ZM230.56 18.6895H226.892L226.304 20.4255H223.798L227.354 10.5975H230.126L233.682 20.4255H231.148L230.56 18.6895ZM229.944 16.8415L228.726 13.2435L227.522 16.8415H229.944Z" fill="white"/>
</svg>
