<svg width="92" height="30" viewBox="0 0 92 30" fill="none" xmlns="http://www.w3.org/2000/svg">
<path d="M15.3489 12.7454V11.8586C15.3489 5.85941 11.7662 4.23657 7.81113 4.23657C3.85603 4.23657 0.335449 6.36931 0.335449 12.3729V18.5406C0.335449 22.5799 2.04696 26.6991 6.62726 26.6991C8.72896 26.6991 10.0769 25.6837 10.6577 24.7215L11.1322 26.3843H15.3179V14.8825H8.04613V18.5894H9.68227V19.3653C9.68227 21.2497 9.42067 22.9746 8.23236 22.9746C7.04405 22.9746 6.78688 21.2497 6.78688 19.3653V11.464C6.78688 9.62829 6.9066 7.94338 7.82887 7.94338C8.75113 7.94338 8.87085 9.62829 8.87085 11.464V12.7454H15.3489Z" fill="#212322"/>
<path d="M25.6484 11.3221H31.6121V10.3909C31.6121 6.12988 28.7655 4.23657 24.5443 4.23657C20.5094 4.23657 17.4766 6.49347 17.4766 10.4441C17.4766 17.8489 25.8568 16.2083 25.8568 21.232C25.8568 22.5622 25.338 23.0056 24.7084 23.0056C24.0788 23.0056 23.5644 22.5622 23.5644 21.232V19.3963H17.5475V20.2831C17.5475 24.7304 20.4429 26.6991 24.7971 26.6991C28.9561 26.6991 32.0599 24.3846 32.0599 20.2432C32.0599 11.9916 23.4403 14.2795 23.4403 9.71253C23.4403 8.38234 23.9768 7.93894 24.5443 7.93894C25.1119 7.93894 25.6484 8.38234 25.6484 9.71253V11.3221Z" fill="black"/>
<rect x="40" y="0.925537" width="51" height="28" rx="3.5" fill="black" stroke="black"/>
<path d="M58.7351 20.4255H55.5991L51.4231 14.1215V20.4255H48.2871V9.14551H51.4231L55.5991 15.5295V9.14551H58.7351V20.4255Z" fill="white"/>
<path d="M70.5695 9.14551V11.6415H66.0575V13.6255H69.3855V16.0095H66.0575V20.4255H62.9215V9.14551H70.5695Z" fill="white"/>
<path d="M82.7862 9.14551V11.6415H79.7782V20.4255H76.6422V11.6415H73.6662V9.14551H82.7862Z" fill="white"/>
</svg>
