<svg version="1.1" xmlns="http://www.w3.org/2000/svg" xmlns:xlink="http://www.w3.org/1999/xlink" x="0px"
	 y="0px" viewBox="0 0 188 37" xml:space="preserve">
<path fill="#000000" d="M183.2,7.1h-44c-2.2,0-4,1.8-4,4v21c0,2.2,1.8,4,4,4h44c2.2,0,4-1.8,4-4v-21
	C187.2,8.9,185.4,7.1,183.2,7.1z M154.6,27.1h-3.1l-4.1-6.1v6.1h-3.1v-11h3.1l4.1,6.2v-6.2h3.1V27.1z M166.1,18.5L166.1,18.5
	l-4.4,0.1v1.9h3.2v2.3h-3.2v4.3h-3.1v-11h7.5V18.5z M178,18.5h-2.9v8.6H172v-8.6h-2.9v-2.4h8.9V18.5z M122.8,12.7
	c-0.7,0-1.4,0.2-2,0.5c-0.6,0.3-1.1,0.8-1.5,1.4V13h-6v21.7h6v-5.9c0.4,0.6,0.9,1,1.5,1.4c0.6,0.3,1.3,0.5,2,0.5
	c2.8,0,4.5-2.3,4.5-7.5v-3C127.3,15,125.7,12.7,122.8,12.7z M121.3,24.4c0,1.5-0.2,2.6-1,2.6c-0.8,0-1-1.1-1-2.6V19
	c0-1.5,0.2-2.6,1-2.6c0.8,0,1,1.1,1,2.6V24.4z M104.4,12.7c-4.1,0-7,2.3-7,7.5v3c0,5.2,2.9,7.5,7,7.5c4.1,0,7-2.3,7-7.5v-3
	C111.4,15,108.5,12.7,104.4,12.7z M105.4,24.9c0,1.5-0.2,2.6-1,2.6c-0.8,0-1-1.1-1-2.6v-6.5c0-1.5,0.2-2.6,1-2.6c0.8,0,1,1.1,1,2.6
	V24.9z M94.5,13h2v2.3h-2v10.4c0,1.1,0.2,2.1,1.2,2.1c0.3,0,0.6,0,0.8-0.2V30c-1,0.5-2.2,0.7-3.4,0.7c-2.8,0-4.5-1.6-4.6-4.7V15.3
	h-1.2V13h1.2v-2.3h6V13z M86.8,24.3c0,4.1-3.1,6.5-7.3,6.5c-4.4,0-7.2-2-7.2-6.4v-0.9h6v1.8c0,1.3,0.5,1.8,1.1,1.8
	c0.6,0,1.1-0.4,1.1-1.8c0-2.3-1.7-3.2-3.6-4.2c-2.3-1.2-4.8-2.6-4.8-6.6s3-6.2,7.1-6.2c4.2,0,7.1,1.9,7.1,6.2v0.8h-6v-1.6
	c0-1.3-0.5-1.8-1.1-1.8s-1.1,0.4-1.1,1.8c0,1.9,1.6,2.6,3.4,3.5C83.9,18.3,86.8,19.5,86.8,24.3z M63.7,12.7c-4.1,0-7,2.3-7,7.5v3
	c0,5.2,3,7.5,7,7.5s6.9-2.3,7-7.3H65V25c0,1.5-0.2,2.6-1.2,2.6s-1.1-1.1-1.1-2.6v-3h8v-1.8C70.7,15,67.8,12.7,63.7,12.7z M64.7,19.2
	h-2v-0.9c0-1.4,0.1-2.6,1-2.6c0.8,0,1,1.1,1,2.6V19.2z M54.8,17.9v12.4h-6V19c0-1.5-0.2-2.6-1-2.6s-1,1.1-1,2.6v11.4h-6V19
	c0-1.5-0.2-2.6-1-2.6s-1,1.1-1,2.6v11.3h-6V13h6v1.8c0.4-0.7,0.9-1.2,1.6-1.6c0.7-0.3,1.4-0.5,2.2-0.5c1.7,0,3.1,0.6,4,2.3
	c0.3-0.7,0.9-1.3,1.6-1.7c0.7-0.4,1.5-0.6,2.3-0.6C52.8,12.7,54.8,14.1,54.8,17.9z M23.8,12.7c-4,0-6.9,1.4-6.9,5.7v0.4h5.7v-1
	c0-1.5,0.4-2.2,1-2.2c0.6,0,1,0.6,1,2.2c0,1.6-1.5,2.2-3.3,2.7c-2.2,0.7-4.7,1.6-4.7,5.1c0,4.5,3,4.9,4.3,4.9c1.9,0,3-0.8,3.7-1.8
	v1.5h6V18.4h0.1C30.7,14,27.8,12.7,23.8,12.7z M24.7,25.2c0,1.4-0.4,2-1,2c-0.6,0-1-0.6-1-2c0-1.9,1-2.7,1.7-3.3
	c0.1-0.1,0.2-0.1,0.3-0.2V25.2z M15,15.8v0.9H8.5v-1.3c0-1.8-0.1-3.5-1-3.5s-1,1.7-1,3.5v7.9c0,1.9,0.3,3.6,1.4,3.6
	c1.2,0,1.4-1.7,1.4-3.6v-0.8H7.7v-3.7H15v11.5h-4.2l-0.5-1.7c-0.6,1-1.9,2-4,2c-4.6,0-6.3-4.1-6.3-8.2v-6.2c0-6,3.5-8.1,7.5-8.1
	C11.4,8.2,15,9.8,15,15.8z"/>
<path fill="#A4A4A4" d="M46,1h-2.5l-3.3,9.1h2.3L43,8.5h3.4l0.6,1.6h2.3L46,1z M43.7,6.8l1.1-3.3l1.1,3.3H43.7z
	 M32.6,1h7v1.8h-2.4v7.3H35V2.8h-2.4V1z M28.3,8.3h3.4v1.8H26V1h5.6v1.8h-3.3v1.8h3v1.7h-3V8.3z M23,5.4c0.5-0.1,0.8-0.3,1.2-0.8
	c0.3-0.3,0.4-0.8,0.4-1.3c0-0.7-0.3-1.3-0.8-1.7C23.3,1.2,22.5,1,21.6,1h-4.1v9.1h4.3c0.9,0,1.7-0.3,2.2-0.7c0.5-0.4,0.8-1,0.8-1.8
	c0-0.5-0.2-1-0.5-1.4C24,5.8,23.5,5.5,23,5.4z M19.7,2.8h1.5c0.3,0,0.6,0,0.8,0.2s0.3,0.5,0.3,0.8S22.2,4.3,22,4.5
	c-0.2,0.1-0.4,0.2-0.8,0.2h-1.5V2.8z M22.2,8.1c-0.2,0.1-0.5,0.2-0.9,0.2h-1.6v-2h1.6c0.4,0,0.7,0.1,0.9,0.3
	c0.2,0.2,0.3,0.5,0.3,0.8C22.5,7.7,22.4,7.9,22.2,8.1z"/>
</svg>