<svg width="16" height="18" viewBox="0 0 16 18" fill="none" xmlns="http://www.w3.org/2000/svg">
<path fill-rule="evenodd" clip-rule="evenodd" d="M3.4736 4.31013C3.78607 4.61184 3.78615 5.10107 3.47378 5.40288C2.57893 6.26745 1.9696 7.36889 1.72282 8.56793C1.47605 9.76697 1.60291 11.0098 2.08737 12.1392C2.57184 13.2686 3.39214 14.2339 4.44457 14.913C5.497 15.5921 6.73429 15.9546 8 15.9546C9.26571 15.9546 10.503 15.5921 11.5554 14.913C12.6079 14.2339 13.4282 13.2686 13.9126 12.1392C14.3971 11.0098 14.524 9.76697 14.2772 8.56793C14.0304 7.36889 13.4211 6.26745 12.5262 5.40288C12.2139 5.10107 12.2139 4.61184 12.5264 4.31013C12.8389 4.00843 13.3454 4.00851 13.6578 4.31031C14.7763 5.39103 15.538 6.76783 15.8465 8.26663C16.1549 9.76542 15.9964 11.3189 15.3908 12.7307C14.7852 14.1424 13.7598 15.349 12.4443 16.198C11.1288 17.0469 9.58214 17.5 8 17.5C6.41786 17.5 4.87125 17.0469 3.55571 16.198C2.24018 15.349 1.21479 14.1424 0.609217 12.7307C0.00363946 11.3189 -0.15494 9.76542 0.15353 8.26663C0.462 6.76783 1.22367 5.39103 2.34222 4.31031C2.65459 4.00851 3.16112 4.00843 3.4736 4.31013Z" fill="black"/>
<path fill-rule="evenodd" clip-rule="evenodd" d="M8.00508 0.5C8.44691 0.5 8.80508 0.845943 8.80508 1.27269V8.99955C8.80508 9.42629 8.44691 9.77223 8.00508 9.77223C7.56325 9.77223 7.20508 9.42629 7.20508 8.99955V1.27269C7.20508 0.845943 7.56325 0.5 8.00508 0.5Z" fill="black"/>
</svg>
