<svg width="23" height="25" viewBox="0 0 23 25" fill="none" xmlns="http://www.w3.org/2000/svg">
<path d="M11.4956 1.00003C11.3391 1.00245 11.2141 1.12961 11.2162 1.28426V2.68622C11.2148 2.78734 11.2686 2.8814 11.3569 2.93237C11.4453 2.98335 11.5547 2.98335 11.6431 2.93237C11.7315 2.8814 11.7852 2.78734 11.7838 2.68622V1.28426C11.7848 1.20847 11.7548 1.13549 11.7005 1.08194C11.6462 1.0284 11.5723 0.998851 11.4956 1.00003ZM9.43322 1.40584C9.33815 1.40649 9.24972 1.45413 9.19768 1.53275C9.14563 1.61138 9.13689 1.71052 9.17439 1.79685L9.71755 3.09257C9.7554 3.18652 9.84151 3.25306 9.94291 3.26671C10.0443 3.28037 10.1453 3.23902 10.2072 3.1585C10.2691 3.07798 10.2824 2.97076 10.2419 2.87789L9.69871 1.58218C9.65536 1.47502 9.55001 1.40504 9.43322 1.40584ZM7.68459 2.56136C7.56911 2.56139 7.46517 2.63055 7.42172 2.73626C7.37827 2.84197 7.40397 2.96315 7.48672 3.04273L8.49046 4.03451C8.56163 4.10776 8.66732 4.13726 8.76676 4.11164C8.86621 4.08603 8.94387 4.00929 8.96979 3.91104C8.99572 3.81278 8.96586 3.70835 8.89173 3.63802L7.88799 2.64624C7.83457 2.59198 7.7612 2.56136 7.68459 2.56136ZM15.3309 2.96661C14.7795 2.96661 14.3113 3.31948 14.1338 3.80614C13.9155 3.63446 13.6432 3.5274 13.3445 3.5274C12.6426 3.5274 12.0675 4.09563 12.0675 4.78916V4.87569C11.8844 4.74752 11.6679 4.66309 11.4263 4.65061C10.6955 4.61268 10.0811 5.19487 10.0811 5.91073V6.69002C9.94721 6.64253 9.80533 6.61171 9.65548 6.61171C9.35678 6.61171 9.08445 6.71877 8.86623 6.89046C8.68871 6.40379 8.2205 6.05092 7.66907 6.05092C7.11764 6.05092 6.64942 6.40379 6.4719 6.89046C6.25368 6.71877 5.98136 6.61171 5.68266 6.61171C4.98076 6.61171 4.40568 7.17994 4.40568 7.87347V15.3455C4.38196 15.2972 4.38259 15.2984 4.35857 15.2496C4.05941 14.6417 3.76295 14.0393 3.6968 13.915C3.3806 13.3218 2.83284 13.0607 2.27517 13.0607C1.8974 13.0607 1.5866 13.1671 1.36787 13.3532C1.14914 13.5392 1.03331 13.7948 1.00429 14.0459C0.989916 14.1702 1.01392 14.2788 1.04308 14.3679L2.61048 19.5273C2.93257 20.5876 3.87732 21.3115 4.97323 21.4265V23.7156C4.97178 23.8167 5.02555 23.9108 5.11394 23.9618C5.20234 24.0127 5.31166 24.0127 5.40006 23.9618C5.48845 23.9108 5.54222 23.8167 5.54077 23.7156V21.1921C5.54076 21.0372 5.41372 20.9117 5.257 20.9117C4.28626 20.9117 3.43267 20.2848 3.15364 19.3663L1.58513 14.2015C1.58442 14.1994 1.58368 14.1974 1.58292 14.1954C1.56895 14.1528 1.56699 14.1232 1.56851 14.11C1.58375 13.9781 1.63631 13.8647 1.73811 13.7781C1.83989 13.6915 2.00139 13.6215 2.27517 13.6215C2.68346 13.6215 2.96091 13.7377 3.19466 14.1763C3.22376 14.231 3.54925 14.8877 3.84811 15.495C3.98414 15.7714 4.00956 15.8235 4.1147 16.0377C4.11698 16.0475 4.12033 16.0571 4.12468 16.0662C4.31335 16.4508 4.51177 16.8552 4.70386 17.248C4.73282 17.3065 4.7987 17.3375 4.86292 17.3231C4.92715 17.3086 4.97284 17.2523 4.97323 17.1872V16.0048V7.87347C4.97323 7.48301 5.28749 7.17249 5.68266 7.17249C6.07783 7.17249 6.39209 7.48301 6.39209 7.87347V12.7803C6.39064 12.8814 6.44441 12.9755 6.5328 13.0265C6.6212 13.0775 6.73053 13.0775 6.81892 13.0265C6.90732 12.9755 6.96108 12.8814 6.95964 12.7803V7.31269C6.95964 6.92222 7.2739 6.61171 7.66907 6.61171C8.06424 6.61171 8.3785 6.92222 8.3785 7.31269V12.7803C8.37705 12.8814 8.43082 12.9755 8.51921 13.0265C8.60761 13.0775 8.71693 13.0775 8.80533 13.0265C8.89372 12.9755 8.94749 12.8814 8.94604 12.7803V7.87347C8.94604 7.48301 9.2603 7.17249 9.65548 7.17249C9.84362 7.17249 10.0119 7.24444 10.1382 7.36033C10.152 7.37881 10.168 7.39555 10.1859 7.41017C10.2961 7.53348 10.3649 7.69395 10.3649 7.87347V8.99504H10.3699C10.3691 9.01367 10.3649 9.03161 10.3649 9.05035V13.0607C10.3635 13.1618 10.4172 13.2559 10.5056 13.3069C10.594 13.3579 10.7033 13.3579 10.7917 13.3069C10.8801 13.2559 10.9339 13.1618 10.9325 13.0607V9.05035C10.9325 8.65898 11.2276 8.31456 11.6031 8.29516C12.0176 8.27364 12.3513 8.59213 12.3513 8.99504V19.5097C12.3513 20.1323 11.8463 20.6313 11.2162 20.6313C11.0595 20.6313 10.9325 20.7568 10.9325 20.9117V23.7156C10.931 23.8167 10.9848 23.9108 11.0732 23.9618C11.1616 24.0127 11.2709 24.0127 11.3593 23.9618C11.4477 23.9108 11.5014 23.8167 11.5 23.7156V21.1351C12.2975 20.9962 12.9189 20.3362 12.9189 19.5097V8.99504C12.9189 8.27918 12.3045 7.69699 11.5737 7.73492C11.3321 7.7474 11.1156 7.83183 10.9325 7.96V7.87347C10.9325 7.5775 10.8233 7.30789 10.6487 7.09199V5.91073C10.6487 5.50782 10.9818 5.18933 11.3964 5.21084C11.7718 5.23025 12.0675 5.57467 12.0675 5.96604V6.8921C12.0661 6.99322 12.1199 7.08728 12.2083 7.13825C12.2967 7.18923 12.406 7.18923 12.4944 7.13825C12.5828 7.08728 12.6365 6.99322 12.6351 6.8921V5.96604C12.6351 5.9473 12.6309 5.92936 12.6301 5.91073H12.6351V4.78916C12.6351 4.3987 12.9494 4.08818 13.3445 4.08818C13.7397 4.08818 14.054 4.3987 14.054 4.78916V9.69602C14.0525 9.79714 14.1063 9.89119 14.1947 9.94217C14.2831 9.99315 14.3924 9.99315 14.4808 9.94217C14.5692 9.89119 14.6229 9.79714 14.6215 9.69602V4.78916V4.22838C14.6215 3.83791 14.9358 3.5274 15.3309 3.5274C15.7261 3.5274 16.0404 3.83791 16.0404 4.22838V4.78916V9.69602C16.0389 9.79714 16.0927 9.89119 16.1811 9.94217C16.2695 9.99315 16.3788 9.99315 16.4672 9.94217C16.5556 9.89119 16.6094 9.79714 16.6079 9.69602V4.78916C16.6079 4.3987 16.9222 4.08818 17.3173 4.08818C17.7125 4.08818 18.0268 4.3987 18.0268 4.78916V13.0607V13.4671C18.0263 13.4764 18.0263 13.4857 18.0268 13.495V14.1029C18.0272 14.168 18.0728 14.2242 18.1371 14.2387C18.2013 14.2532 18.2672 14.2221 18.2961 14.1637C18.4882 13.7709 18.6866 13.3665 18.8753 12.9819C18.88 12.9723 18.8835 12.9621 18.8859 12.9517C18.9909 12.7379 19.0162 12.6863 19.1519 12.4107C19.4508 11.8034 19.7762 11.1467 19.8053 11.092C20.039 10.6538 20.3167 10.5372 20.7248 10.5372C20.9986 10.5372 21.1601 10.6072 21.2619 10.6938C21.3637 10.7804 21.4163 10.8938 21.4315 11.0257C21.433 11.0388 21.431 11.0684 21.4171 11.1111C21.4163 11.1131 21.4156 11.1151 21.4149 11.1171L19.8464 16.2819C19.5673 17.2005 18.7137 17.8274 17.743 17.8274H16.466C16.4149 17.8267 16.3673 17.8532 16.3415 17.8969C16.3157 17.9406 16.3157 17.9946 16.3415 18.0383C16.3673 18.0819 16.4149 18.1085 16.466 18.1078H17.4592V20.6313C17.4578 20.7324 17.5116 20.8265 17.5999 20.8775C17.6883 20.9284 17.7977 20.9284 17.8861 20.8775C17.9745 20.8265 18.0282 20.7324 18.0268 20.6313V18.3422C19.1227 18.2272 20.0674 17.5033 20.3895 16.4429L21.9569 11.2836C21.9861 11.1945 22.0101 11.0859 21.9957 10.9616C21.9667 10.7105 21.8509 10.4549 21.6321 10.2689C21.4134 10.0828 21.1026 9.97641 20.7248 9.97641C20.1672 9.97641 19.6194 10.2375 19.3032 10.8307C19.2371 10.955 18.9406 11.5574 18.6414 12.1653C18.6174 12.2141 18.618 12.2129 18.5943 12.2612V4.78916C18.5943 4.09563 18.0192 3.5274 17.3173 3.5274C17.0186 3.5274 16.7463 3.63447 16.5281 3.80615C16.3506 3.31949 15.8824 2.96661 15.3309 2.96661ZM15.6147 17.8274C15.5635 17.8267 15.5159 17.8532 15.4901 17.8969C15.4644 17.9406 15.4644 17.9946 15.4901 18.0383C15.5159 18.0819 15.5635 18.1085 15.6147 18.1078H15.8985C15.9496 18.1085 15.9972 18.0819 16.023 18.0383C16.0488 17.9946 16.0488 17.9406 16.023 17.8969C15.9972 17.8532 15.9496 17.8267 15.8985 17.8274H15.6147Z" fill="#0F0E0E" stroke="#0F0E0E" stroke-width="0.5"/>
</svg>
