<svg width="12" height="13" viewBox="0 0 12 13" fill="none" xmlns="http://www.w3.org/2000/svg">
<path d="M4.14474 0C1.71411 1.00384 0 3.42317 0 6.25117C0 9.97828 2.97483 13 6.64639 13C8.84165 13 10.7894 11.9181 12 10.2528C11.2272 10.5719 10.3791 10.7504 9.49342 10.7504C5.68915 10.2528 2.84705 7.72865 2.84705 4.00156C2.84705 2.50292 3.33062 1.11992 4.14474 0ZM6.56744 1.91444L6.1283 2.77265L5.14639 2.90975L5.85692 3.575L5.68915 4.51444L6.56744 4.07265L7.44573 4.51444L7.27797 3.575L7.98849 2.90975L7.00658 2.77265L6.56744 1.91444ZM8.76316 5.7535L8.22534 6.82499L7.02632 6.99765L7.89474 7.83047L7.68752 9.00351L8.76316 8.45L9.83389 9.00351L9.63158 7.83047L10.5 6.99765L9.30099 6.82499L8.76316 5.7535Z" fill="black"/>
</svg>
