<svg width="24" height="24" viewBox="0 0 24 24" fill="none" xmlns="http://www.w3.org/2000/svg">
<path d="M10.202 22.8624C10.1275 23.0838 9.88935 23.2045 9.67066 23.1327L7.48055 22.4108C7.26185 22.3386 7.13814 22.1038 7.20717 21.8752L7.7037 20.2334C7.77136 20.0097 7.67909 19.7197 7.49217 19.5816L6.3614 18.7463C6.17687 18.61 5.87855 18.6055 5.68582 18.7429L4.30151 19.7294C4.11288 19.864 3.8501 19.8196 3.71512 19.6309L2.36018 17.7411C2.2252 17.552 2.26074 17.2884 2.44868 17.1448L3.80122 16.1131C3.98507 15.9726 4.07836 15.6826 4.00694 15.4596L3.575 14.1088C3.50426 13.8886 3.26574 13.7068 3.03029 13.703L1.33911 13.6752C1.10879 13.6714 0.921875 13.4789 0.921875 13.2458V10.9082C0.921875 10.6747 1.10367 10.4826 1.33911 10.4788L3.03029 10.451C3.26061 10.4472 3.50357 10.2682 3.575 10.0448L4.00694 8.6944C4.07733 8.47412 3.98917 8.18448 3.80122 8.04086L2.44868 7.00922C2.2645 6.86873 2.2252 6.60129 2.36018 6.41292L3.71512 4.52277C3.85044 4.33406 4.10878 4.28724 4.30151 4.42425L5.68582 5.41111C5.87445 5.54536 6.17448 5.5457 6.3614 5.4073L7.49217 4.57234C7.6767 4.43602 7.77307 4.14914 7.7037 3.92053L7.20717 2.27875C7.13951 2.05501 7.26219 1.81531 7.48055 1.74319L9.67066 1.02131C9.88936 0.949165 10.1258 1.06537 10.202 1.29153L10.7512 2.91632C10.826 3.13763 11.0686 3.31697 11.2997 3.31697H12.698C12.9262 3.31697 13.1702 3.14249 13.2468 2.91632L13.7956 1.29153C13.8704 1.07022 14.1086 0.94951 14.327 1.02131L16.5171 1.74319C16.7358 1.81533 16.8598 2.05018 16.7908 2.27875L16.2939 3.92053C16.2263 4.14427 16.3189 4.43428 16.5058 4.57234L17.6366 5.4073C17.8211 5.54362 18.1194 5.54848 18.3118 5.41111L19.6965 4.42425C19.8848 4.29001 20.1475 4.33441 20.2829 4.52277L21.6374 6.41292C21.7727 6.60163 21.7372 6.8656 21.5489 7.00922L20.1967 8.04086C20.0125 8.18135 19.9196 8.471 19.991 8.6944L20.4229 10.0448C20.4933 10.2654 20.7322 10.4469 20.9676 10.451L22.6588 10.4788C22.8891 10.4826 23.0757 10.6751 23.0757 10.9082V13.2458C23.0757 13.4793 22.8943 13.6714 22.6588 13.6752L20.9676 13.703C20.7373 13.7068 20.4944 13.8858 20.4229 14.1088L19.991 15.4596C19.9206 15.6799 20.0084 15.9695 20.1967 16.1131L21.5489 17.1448C21.7331 17.2853 21.7727 17.5524 21.6374 17.7411L20.2829 19.6309C20.1475 19.8196 19.8892 19.8668 19.6965 19.7294L18.3118 18.7429C18.1235 18.6086 17.8235 18.6083 17.6366 18.7463L16.5058 19.5816C16.3213 19.718 16.2249 20.0048 16.2939 20.2334L16.7908 21.8752C16.8585 22.099 16.7354 22.3387 16.5171 22.4108L14.327 23.1327C14.1083 23.2045 13.8721 23.0886 13.7956 22.8624L13.2468 21.2377C13.1719 21.0163 12.9293 20.837 12.698 20.837H11.2997C11.0714 20.837 10.8274 21.0115 10.7512 21.2377L10.202 22.8624Z" stroke="white" stroke-width="1.25"/>
<path d="M14.768 12.0768C14.768 13.6063 13.5283 14.8462 11.9987 14.8462C10.4694 14.8462 9.22957 13.6064 9.22957 12.0768C9.22957 10.5475 10.4693 9.30769 11.9987 9.30769C13.5282 9.30769 14.768 10.5474 14.768 12.0768Z" stroke="white" stroke-width="1.25"/>
</svg>
