<svg width="26" height="26" viewBox="0 0 26 26" fill="none" xmlns="http://www.w3.org/2000/svg">
<path d="M23.0204 26H2.9796C1.3364 26 0 24.6636 0 23.0204V6.9875C0 5.343 1.3364 4.0079 2.9796 4.0079H5.7694C7.3229 1.521 10.0386 0 13 0C15.9601 0 18.6771 1.521 20.2306 4.0079H23.0204C24.6636 4.0079 26 5.343 26 6.9875V23.0204C26 24.6636 24.6636 26 23.0204 26ZM2.9796 5.9579C2.4115 5.9579 1.95 6.4194 1.95 6.9875V23.0204C1.95 23.5885 2.4115 24.05 2.9796 24.05H23.0204C23.5885 24.05 24.05 23.5885 24.05 23.0204V6.9875C24.05 6.4194 23.5885 5.9579 23.0204 5.9579H19.8354C19.4233 6.0229 19.0138 5.8344 18.8188 5.4613C17.6748 3.2968 15.4466 1.9513 13 1.9513C10.5521 1.9513 8.3226 3.2968 7.1812 5.4639C6.9732 5.8565 6.5286 6.0619 6.0983 5.9579H2.9809H2.9796Z" fill="#6D717E"/>
<path d="M13.0016 8.01953C9.51759 8.01953 6.68359 10.8535 6.68359 14.3375C6.68359 17.8215 9.51759 20.6555 13.0016 20.6555C16.4856 20.6555 19.3196 17.8215 19.3196 14.3375C19.3196 10.8535 16.4856 8.01953 13.0016 8.01953V8.01953ZM15.6016 15.2774H13.9766V16.9024C13.9766 17.4406 13.5398 17.8774 13.0016 17.8774C12.4634 17.8774 12.0266 17.4406 12.0266 16.9024V15.2774H10.4016C9.86339 15.2774 9.42659 14.8406 9.42659 14.3024C9.42659 13.7642 9.86339 13.3274 10.4016 13.3274H12.0266V11.7024C12.0266 11.1642 12.4634 10.7274 13.0016 10.7274C13.5398 10.7274 13.9766 11.1642 13.9766 11.7024V13.3274H15.6016C16.1398 13.3274 16.5766 13.7642 16.5766 14.3024C16.5766 14.8406 16.1398 15.2774 15.6016 15.2774Z" fill="#6D717E"/>
</svg>
