<svg width="35" height="31" viewBox="0 0 35 31" fill="none" xmlns="http://www.w3.org/2000/svg">
<path d="M34.6954 3.588C33.3966 4.20098 32.0921 4.66372 30.6465 4.81997C32.0921 3.89449 33.2498 2.35603 33.8257 0.661321C32.3801 1.5868 30.9345 2.19978 29.3476 2.51228C27.902 0.973821 26.0215 0.0483398 23.9999 0.0483398C20.0922 0.0483398 16.9129 3.43175 16.9129 7.5844C16.9129 8.20339 16.9129 8.81637 17.0597 9.27911C11.1303 8.97262 5.92939 6.04594 2.45646 1.43055C1.73364 2.51228 1.44564 3.89449 1.44564 5.27671C1.44564 7.8969 2.74446 10.2046 4.62492 11.5868C3.46728 11.4306 2.31528 11.1241 1.44564 10.6613C1.44564 10.6613 1.44564 10.6613 1.44564 10.8176C1.44564 14.5075 3.9021 17.5844 7.08138 18.2034C6.50539 18.3536 5.92939 18.5099 5.20657 18.5099C4.77175 18.5099 4.33692 18.5099 3.9021 18.3536C4.77174 21.4306 7.37503 23.588 10.5543 23.588C8.09785 25.5892 5.05974 26.8152 1.73364 26.8152C1.15764 26.8152 0.575998 26.8152 0 26.6649C3.17928 28.8164 6.94021 30.0483 10.8423 30.0483C23.9999 30.0483 31.0813 18.5099 31.0813 8.50988C31.0813 8.20339 31.0813 7.8969 31.0813 7.5844C32.5269 6.50868 33.6846 5.12647 34.6954 3.58801" fill="#4F5663"/>
</svg>
