<svg width="24" height="24" viewBox="0 0 24 24" fill="none" xmlns="http://www.w3.org/2000/svg">
<path d="M10.204 22.7863C10.1295 23.0076 9.89131 23.1283 9.67261 23.0565L7.4825 22.3346C7.2638 22.2625 7.1401 22.0276 7.20912 21.799L7.70565 20.1573C7.77331 19.9335 7.68105 19.6435 7.49412 19.5055L6.36336 18.6702C6.17883 18.5338 5.8805 18.5293 5.68777 18.6667L4.30346 19.6532C4.11483 19.7878 3.85205 19.7434 3.71707 19.5547L2.36213 17.6649C2.22715 17.4758 2.26269 17.2122 2.45064 17.0686L3.80317 16.037C3.98702 15.8965 4.08031 15.6065 4.00889 15.3834L3.57695 14.0327C3.50621 13.8124 3.26769 13.6306 3.03224 13.6268L1.34106 13.5991C1.11074 13.5952 0.923828 13.4027 0.923828 13.1696V10.832C0.923828 10.5986 1.10562 10.4064 1.34106 10.4026L3.03224 10.3748C3.26256 10.371 3.50553 10.192 3.57695 9.96865L4.00889 8.61822C4.07929 8.39795 3.99112 8.10831 3.80317 7.96469L2.45064 6.93305C2.26645 6.79256 2.22715 6.52511 2.36213 6.33675L3.71707 4.4466C3.85239 4.25789 4.11074 4.21106 4.30346 4.34808L5.68777 5.33494C5.8764 5.46918 6.17643 5.46953 6.36336 5.33112L7.49412 4.49617C7.67865 4.35984 7.77502 4.07297 7.70565 3.84436L7.20912 2.20258C7.14146 1.97884 7.26414 1.73914 7.4825 1.66701L9.67261 0.945143C9.89131 0.872993 10.1278 0.989195 10.204 1.21536L10.7531 2.84015C10.828 3.06146 11.0706 3.2408 11.3016 3.2408H12.6999C12.9282 3.2408 13.1722 3.06632 13.2487 2.84015L13.7975 1.21536C13.8724 0.994052 14.1106 0.873338 14.3289 0.945143L16.519 1.66701C16.7377 1.73916 16.8618 1.97401 16.7927 2.20258L16.2959 3.84436C16.2282 4.0681 16.3208 4.3581 16.5078 4.49617L17.6385 5.33112C17.823 5.46745 18.1214 5.47231 18.3138 5.33494L19.6984 4.34808C19.8867 4.21384 20.1495 4.25824 20.2848 4.4466L21.6394 6.33675C21.7747 6.52545 21.7392 6.78943 21.5509 6.93305L20.1987 7.96469C20.0145 8.10518 19.9215 8.39483 19.9929 8.61822L20.4249 9.96865C20.4953 10.1893 20.7341 10.3707 20.9696 10.3748L22.6608 10.4026C22.8911 10.4064 23.0777 10.5989 23.0777 10.832V13.1696C23.0777 13.4031 22.8962 13.5953 22.6608 13.5991L20.9696 13.6268C20.7393 13.6306 20.4963 13.8096 20.4249 14.0327L19.9929 15.3834C19.9225 15.6037 20.0104 15.8933 20.1987 16.037L21.5509 17.0686C21.7351 17.2091 21.7747 17.4762 21.6394 17.6649L20.2848 19.5547C20.1495 19.7434 19.8911 19.7906 19.6984 19.6532L18.3138 18.6667C18.1255 18.5325 17.8254 18.5321 17.6385 18.6702L16.5078 19.5055C16.3232 19.6418 16.2269 19.9287 16.2959 20.1573L16.7927 21.799C16.8604 22.0228 16.7374 22.2625 16.519 22.3346L14.3289 23.0565C14.1102 23.1283 13.8741 23.0124 13.7975 22.7863L13.2487 21.1615C13.1739 20.9402 12.9313 20.7608 12.6999 20.7608H11.3016C11.0733 20.7608 10.8294 20.9353 10.7531 21.1615L10.204 22.7863Z" stroke="black" stroke-width="1.5"/>
<path d="M14.7689 11.9996C14.7689 13.5291 13.5292 14.7689 11.9996 14.7689C10.4703 14.7689 9.23047 13.5292 9.23047 11.9996C9.23047 10.4703 10.4702 9.23047 11.9996 9.23047C13.5291 9.23047 14.7689 10.4702 14.7689 11.9996Z" stroke="black" stroke-width="1.25"/>
</svg>
