<svg width="16" height="16" viewBox="0 0 16 16" fill="none" xmlns="http://www.w3.org/2000/svg">
<path d="M13.22 0.760487C11.68 0.300487 9.56 0.700487 8 2.52049C6.42 0.680487 4.3 0.280487 2.78 0.760487C1.06 1.28049 0 2.82049 0 4.78049C0 9.10049 7.32 14.8605 7.62 15.1205L8 15.4005L8.38 15.1005C8.7 14.8605 16 9.10049 16 4.76049C16 2.82049 14.94 1.28049 13.22 0.760487ZM8 13.8405C5.8 12.0405 1.24 7.70049 1.24 4.78049C1.24 3.36049 1.94 2.30049 3.14 1.94049C3.42 1.86049 3.7 1.82049 4.02 1.82049C5.16 1.82049 6.52 2.42049 7.5 3.90049L8.02 4.66049L8.54 3.90049C9.8 2.02049 11.64 1.56049 12.9 1.96049C14.08 2.32049 14.8 3.38049 14.8 4.80049C14.76 7.70049 10.2 12.0405 8 13.8405Z" fill="#EE2A28"/>
</svg>
