<svg width="35" height="31" viewBox="0 0 35 31" fill="none" xmlns="http://www.w3.org/2000/svg">
<path fill-rule="evenodd" clip-rule="evenodd" d="M4.69836 4.09603C3.84057 4.09603 3.13224 4.84984 3.13224 5.7627V25.7627C3.13224 26.6756 3.84057 27.4294 4.69836 27.4294H29.7563C30.6141 27.4294 31.3224 26.6756 31.3224 25.7627V5.7627C31.3224 4.84984 30.6141 4.09603 29.7563 4.09603H4.69836ZM0 5.7627C0 3.00889 2.11068 0.762695 4.69836 0.762695H29.7563C32.3439 0.762695 34.4546 3.00889 34.4546 5.7627V25.7627C34.4546 28.5165 32.3439 30.7627 29.7563 30.7627H4.69836C2.11068 30.7627 0 28.5165 0 25.7627V5.7627Z" fill="#4F5663"/>
<path d="M31.3572 2.80054L17.2621 12.8006L3.16699 2.80054" fill="#4F5663"/>
<path fill-rule="evenodd" clip-rule="evenodd" d="M1.86427 1.87626C2.34406 1.11037 3.31641 0.903415 4.03609 1.41401L17.2625 10.7978L30.4888 1.41401C31.2085 0.903415 32.1809 1.11037 32.6607 1.87626C33.1405 2.64215 32.946 3.67695 32.2263 4.18754L18.1312 14.1876C17.6051 14.5609 16.9198 14.5609 16.3937 14.1876L2.29863 4.18754C1.57896 3.67695 1.38449 2.64215 1.86427 1.87626Z" fill="#4F5663"/>
</svg>
