<svg width="24" height="16" viewBox="0 0 24 16" fill="none" xmlns="http://www.w3.org/2000/svg">
<path d="M9.18974 0.342518C9.64644 0.79921 9.64644 1.37007 9.30392 1.82677L9.18974 1.94094L4.28031 6.85037H22.0913C22.7763 6.85037 23.233 7.30706 23.233 7.9921C23.233 8.56296 22.7763 9.01965 22.2054 9.13383H4.28031L9.18974 14.0433C9.64644 14.4999 9.64644 15.0708 9.30392 15.5275L9.18974 15.6417C8.73305 16.0984 8.16219 16.0984 7.7055 15.7558L7.59133 15.6417L0.740956 8.79131L0.626783 8.67713L0.51261 8.56296L0.398438 8.44879V7.53541L0.51261 7.42123L0.626783 7.30706L0.740956 7.19289L7.59133 0.342518C8.04802 -0.114173 8.73305 -0.114173 9.18974 0.342518Z" fill="white"/>
</svg>
