<svg width="10" height="41" viewBox="0 0 10 41" fill="none" xmlns="http://www.w3.org/2000/svg">
<path d="M9.10156 0.239998L8.20556 27.288H1.59756L0.645563 0.239998H9.10156ZM5.06956 40.392C3.6509 40.392 2.4749 39.9627 1.54156 39.104C0.645563 38.208 0.197563 37.1067 0.197563 35.8C0.197563 34.4933 0.645563 33.4107 1.54156 32.552C2.4749 31.656 3.6509 31.208 5.06956 31.208C6.4509 31.208 7.58956 31.656 8.48556 32.552C9.38156 33.4107 9.82956 34.4933 9.82956 35.8C9.82956 37.1067 9.38156 38.208 8.48556 39.104C7.58956 39.9627 6.4509 40.392 5.06956 40.392Z" fill="#EBAD04"/>
</svg>
