<svg width="46" height="42" viewBox="0 0 46 42" fill="none" xmlns="http://www.w3.org/2000/svg">
<path d="M3 0C1.35443 0 0 1.35554 0 3V12V22V39C0 40.6445 1.35443 42 3 42H43C44.6451 42 46 40.6451 46 39V22V12V7C46 5.35494 44.6451 4 43 4H16C16.0866 4 15.969 4.00036 15.7246 3.71875C15.4802 3.43714 15.1794 2.96994 14.8652 2.46875C14.551 1.96756 14.2218 1.43279 13.8066 0.962889C13.3915 0.492991 12.8188 0 12 0H3ZM3 2H12C11.9392 2 12.0611 2.00701 12.3086 2.28711C12.556 2.56721 12.8572 3.03244 13.1699 3.53125C13.4826 4.03006 13.8064 4.56286 14.2129 5.03125C14.6194 5.49964 15.1789 6 16 6H43C43.5629 6 44 6.43706 44 7V9.1875C43.6851 9.07394 43.3518 9 43 9H3C2.64815 9 2.31489 9.07394 2 9.1875V3C2 2.43646 2.43557 2 3 2H3ZM3 11H43C43.565 11 44 11.435 44 12V22V39C44 39.5629 43.5629 40 43 40H3C2.43557 40 2 39.5635 2 39V22V12C2 11.435 2.43497 11 3 11Z" fill="#3D4351"/>
</svg>
