<svg width="23" height="25" viewBox="0 0 23 25" fill="none" xmlns="http://www.w3.org/2000/svg">
<path fill-rule="evenodd" clip-rule="evenodd" d="M1.15332 11.957C1.77519 11.957 2.2793 12.3868 2.2793 12.917V21.749C2.2793 22.08 2.43352 22.3975 2.70803 22.6315C2.98255 22.8655 3.35486 22.997 3.74308 22.997H19.2816C19.6698 22.997 20.0421 22.8655 20.3167 22.6315C20.5912 22.3975 20.7454 22.08 20.7454 21.749V12.917C20.7454 12.3868 21.2495 11.957 21.8714 11.957C22.4932 11.957 22.9973 12.3868 22.9973 12.917V21.749C22.9973 22.5892 22.6059 23.395 21.909 23.9891C21.2122 24.5833 20.2671 24.917 19.2816 24.917H3.74308C2.7576 24.917 1.81249 24.5833 1.11566 23.9891C0.418822 23.395 0.0273438 22.5892 0.0273438 21.749V12.917C0.0273438 12.3868 0.531462 11.957 1.15332 11.957Z" fill="white"/>
<path fill-rule="evenodd" clip-rule="evenodd" d="M11.3236 1.19915C11.7059 0.824243 12.3258 0.824243 12.7082 1.19915L17.2118 5.61515C17.5942 5.99005 17.5942 6.59789 17.2118 6.97279C16.8295 7.34769 16.2096 7.34769 15.8272 6.97279L12.9949 4.1956L12.9949 16.23C12.9949 16.7602 12.5565 17.19 12.0158 17.19C11.4751 17.19 11.0368 16.7602 11.0368 16.23L11.0368 4.19563L8.20455 6.97279C7.82221 7.34769 7.2023 7.34769 6.81996 6.97279C6.43762 6.59789 6.43762 5.99005 6.81996 5.61515L11.3236 1.19915Z" fill="white"/>
</svg>
