<svg width="20" height="20" viewBox="0 0 20 20" fill="none" xmlns="http://www.w3.org/2000/svg">
<path fill-rule="evenodd" clip-rule="evenodd" d="M10 19C14.9706 19 19 14.9706 19 10C19 5.02944 14.9706 1 10 1C5.02944 1 1 5.02944 1 10C1 14.9706 5.02944 19 10 19ZM10 20C15.5228 20 20 15.5228 20 10C20 4.47715 15.5228 0 10 0C4.47715 0 0 4.47715 0 10C0 15.5228 4.47715 20 10 20Z" fill="black"/>
<path d="M7.5 10C7.5 10.8284 6.82843 11.5 6 11.5C5.17157 11.5 4.5 10.8284 4.5 10C4.5 9.17157 5.17157 8.5 6 8.5C6.82843 8.5 7.5 9.17157 7.5 10Z" fill="black"/>
<path d="M11.5 10C11.5 10.8284 10.8284 11.5 10 11.5C9.17157 11.5 8.5 10.8284 8.5 10C8.5 9.17157 9.17157 8.5 10 8.5C10.8284 8.5 11.5 9.17157 11.5 10Z" fill="black"/>
<path d="M15.5 10C15.5 10.8284 14.8284 11.5 14 11.5C13.1716 11.5 12.5 10.8284 12.5 10C12.5 9.17157 13.1716 8.5 14 8.5C14.8284 8.5 15.5 9.17157 15.5 10Z" fill="black"/>
</svg>
