<svg width="21" height="21" viewBox="0 0 21 21" fill="none" xmlns="http://www.w3.org/2000/svg">
<path fill-rule="evenodd" clip-rule="evenodd" d="M16.0968 1.43735L3.12611 15.1571L2.05348 19.2517L6.09961 17.9206L19.0624 4.24722L16.0968 1.43735ZM16.8165 0.298146C16.4081 -0.101963 15.7529 -0.0993536 15.3477 0.305902C15.3433 0.310273 15.339 0.314705 15.3348 0.319196L2.04928 14.3718C1.97303 14.4525 1.91832 14.5511 1.89019 14.6584L0.466905 20.0916C0.405553 20.3258 0.477156 20.5748 0.653543 20.7406C0.829931 20.9065 1.08287 20.9626 1.31285 20.887L6.67111 19.1242C6.77508 19.09 6.86893 19.0305 6.94423 18.9511L20.2164 4.95132C20.2172 4.95055 20.2179 4.94979 20.2186 4.94903C20.2196 4.94798 20.2206 4.94693 20.2215 4.94588C20.4111 4.74131 20.5095 4.47063 20.4986 4.19512L20.4985 4.19279C20.4868 3.91825 20.3676 3.65976 20.1668 3.47253L16.8165 0.298146Z" fill="black"/>
<path fill-rule="evenodd" clip-rule="evenodd" d="M13.2196 2.55468C13.4703 2.28935 13.8886 2.27749 14.154 2.52819L18.0761 6.23403C18.3414 6.48473 18.3533 6.90307 18.1026 7.1684C17.8519 7.43374 17.4335 7.4456 17.1682 7.19489L13.2461 3.48906C12.9808 3.23836 12.9689 2.82002 13.2196 2.55468Z" fill="black"/>
<path fill-rule="evenodd" clip-rule="evenodd" d="M1.15701 17.8224C1.40767 17.557 1.826 17.545 2.09139 17.7957L3.51903 19.1441C3.78442 19.3948 3.79636 19.8131 3.5457 20.0785C3.29505 20.3439 2.87671 20.3558 2.61133 20.1051L1.18368 18.7567C0.918298 18.5061 0.906359 18.0877 1.15701 17.8224Z" fill="black"/>
</svg>
