<svg width="39" height="31" viewBox="0 0 39 31" fill="none" xmlns="http://www.w3.org/2000/svg">
<path d="M32.8539 3.48492C29.5533 0.660489 24.3319 0.18268 24.11 0.162385C23.7616 0.131024 23.4304 0.341334 23.2883 0.680781C23.2779 0.702919 23.1635 0.981489 23.0369 1.41502C25.2195 1.80612 27.9012 2.59571 30.3282 4.19887C30.7165 4.4553 30.8361 4.99952 30.5951 5.41461C30.4391 5.68395 30.167 5.83154 29.8896 5.83154C29.7405 5.83154 29.5897 5.78911 29.4527 5.69872C25.2819 2.94623 20.0709 2.80787 19.0689 2.80787C18.0669 2.80787 12.8542 2.94623 8.68674 5.69872C8.29669 5.95699 7.78703 5.82785 7.54434 5.41461C7.30165 4.99952 7.42299 4.45714 7.81131 4.19887C10.2383 2.59756 12.9183 1.80612 15.1026 1.41502C14.9743 0.979643 14.8599 0.702919 14.8512 0.680781C14.7073 0.341332 14.3779 0.127332 14.0278 0.164228C13.8076 0.182677 8.58619 0.660487 5.24047 3.52551C3.49307 5.24304 0 15.2937 0 23.9828C0 24.1359 0.0381385 24.2872 0.109213 24.42C2.52056 28.927 9.09759 30.1076 10.5971 30.1593C10.6058 30.1593 10.6144 30.1593 10.6231 30.1593C10.8883 30.1593 11.138 30.0246 11.294 29.7959L12.8108 27.5784C8.72141 26.453 6.6325 24.5436 6.51115 24.4311C6.16791 24.1083 6.13497 23.5511 6.43834 23.1859C6.74171 22.8206 7.26351 22.7855 7.60675 23.1065C7.65702 23.1545 11.5037 26.6283 19.0689 26.6283C26.6479 26.6283 30.4946 23.1397 30.5327 23.1047C30.876 22.7874 31.3995 22.8206 31.7011 23.1877C32.0028 23.553 31.9698 24.1083 31.6283 24.4293C31.507 24.5436 29.4181 26.4512 25.3287 27.5765L26.8455 29.794C27.0015 30.0228 27.2512 30.1575 27.5164 30.1575C27.5251 30.1575 27.5337 30.1575 27.5424 30.1575C29.0419 30.1076 35.6189 28.927 38.0303 24.4182C38.0996 24.2854 38.1377 24.1359 38.1377 23.9828C38.1377 15.2937 34.6447 5.24305 32.8539 3.48493L32.8539 3.48492ZM13.6793 20.4537C12.0775 20.4537 10.7774 18.8726 10.7774 16.9245C10.7774 14.9764 12.0758 13.3953 13.6793 13.3953C15.2828 13.3953 16.5813 14.9764 16.5813 16.9245C16.5813 18.8726 15.2828 20.4537 13.6793 20.4537ZM24.4584 20.4537C22.8566 20.4537 21.5565 18.8726 21.5565 16.9245C21.5565 14.9764 22.8549 13.3953 24.4584 13.3953C26.0602 13.3953 27.3604 14.9764 27.3604 16.9245C27.3604 18.8726 26.0602 20.4537 24.4584 20.4537Z" fill="#4F5663"/>
</svg>
