<svg width="40" height="40" viewBox="0 0 40 40" fill="none" xmlns="http://www.w3.org/2000/svg">
<circle cx="20" cy="20" r="20" fill="url(#paint0_linear_6556_19110)"/>
<path fill-rule="evenodd" clip-rule="evenodd" d="M20.7522 15.1992C20.7522 14.785 20.4164 14.4492 20.0022 14.4492C19.588 14.4492 19.2522 14.785 19.2522 15.1992V20.0491H14.4023C13.9881 20.0491 13.6523 20.3849 13.6523 20.7991C13.6523 21.2133 13.9881 21.5491 14.4023 21.5491H19.2522V26.3992C19.2522 26.8134 19.588 27.1492 20.0022 27.1492C20.4164 27.1492 20.7522 26.8134 20.7522 26.3992V21.5491H25.6023C26.0166 21.5491 26.3523 21.2133 26.3523 20.7991C26.3523 20.3849 26.0166 20.0491 25.6023 20.0491H20.7522V15.1992Z" fill="#1A1E2B"/>
<defs>
<linearGradient id="paint0_linear_6556_19110" x1="-7.5" y1="18" x2="50" y2="33.5" gradientUnits="userSpaceOnUse">
<stop stop-color="#88AAF1"/>
<stop offset="0.354167" stop-color="#EFCCC1"/>
<stop offset="0.6875" stop-color="#B8FAF6"/>
<stop offset="1" stop-color="#C8B2F4"/>
</linearGradient>
</defs>
</svg>
