<svg width="19" height="20" viewBox="0 0 19 20" fill="none" xmlns="http://www.w3.org/2000/svg">
<path d="M2.72761 20H15.4548C15.696 20 15.9272 19.9043 16.0976 19.7338C16.2681 19.5632 16.364 19.332 16.364 19.091V4.54537H17.2732H17.273C17.5978 4.54537 17.898 4.37206 18.0603 4.09077C18.2227 3.80948 18.2227 3.46305 18.0603 3.18179C17.898 2.9005 17.5978 2.72719 17.273 2.72719H12.7274C12.7274 2.00392 12.4402 1.31013 11.9287 0.798692C11.4172 0.287255 10.7235 0 10.0002 0H8.18201C7.45874 0 6.76495 0.287227 6.25351 0.798692C5.74203 1.31018 5.45463 2.00392 5.45463 2.72719H0.90924C0.5844 2.72719 0.284236 2.9005 0.12188 3.18179C-0.0406268 3.46307 -0.0406268 3.80951 0.12188 4.09077C0.284208 4.37206 0.584391 4.54537 0.90924 4.54537H1.81823V19.091C1.81823 19.332 1.91397 19.5632 2.08457 19.7338C2.255 19.9043 2.48626 20 2.72741 20H2.72761ZM8.182 1.81796H10.0002C10.2414 1.81796 10.4726 1.9137 10.643 2.08413C10.8135 2.25455 10.9092 2.48581 10.9092 2.72696H7.27279C7.27279 2.48581 7.36871 2.25455 7.53914 2.08413C7.70957 1.9137 7.94083 1.81796 8.18197 1.81796H8.182ZM6.36379 4.54515H14.5456V18.1818H3.63637V4.54515H6.36379Z" fill="black"/>
<path d="M7.26837 16.365C7.50953 16.365 7.74079 16.2693 7.9112 16.0989C8.08181 15.9282 8.17755 15.697 8.17755 15.456V7.27422C8.17755 6.94938 8.00424 6.64921 7.72296 6.48686C7.44167 6.32453 7.09505 6.32453 6.81397 6.48686C6.53268 6.64919 6.35938 6.94937 6.35938 7.27422V15.456C6.35938 15.697 6.45511 15.9283 6.62554 16.0989C6.79615 16.2693 7.02741 16.365 7.26837 16.365H7.26837Z" fill="black"/>
<path d="M10.909 16.365C11.1502 16.365 11.3814 16.2693 11.5518 16.0989C11.7224 15.9282 11.8182 15.697 11.8182 15.456V7.27422C11.8182 6.94938 11.6449 6.64921 11.3636 6.48686C11.0823 6.32453 10.7359 6.32453 10.4546 6.48686C10.1733 6.64919 10 6.94937 10 7.27422V15.456C10 15.697 10.0957 15.9283 10.2662 16.0989C10.4368 16.2693 10.668 16.365 10.909 16.365H10.909Z" fill="black"/>
</svg>
