<svg width="13" height="13" viewBox="0 0 13 13" fill="none" xmlns="http://www.w3.org/2000/svg">
<path d="M9.97674 6.5C9.97674 8.41699 8.41699 9.97674 6.5 9.97674C4.58301 9.97674 3.02326 8.41699 3.02326 6.5C3.02326 4.58301 4.58301 3.02326 6.5 3.02326C8.41699 3.02326 9.97674 4.58301 9.97674 6.5ZM6.5 2.11628C6.75036 2.11628 6.95349 1.91315 6.95349 1.66279V0.453488C6.95349 0.203125 6.75036 0 6.5 0C6.24964 0 6.04651 0.203125 6.04651 0.453488V1.66279C6.04651 1.91315 6.24964 2.11628 6.5 2.11628ZM6.5 10.8837C6.24964 10.8837 6.04651 11.0868 6.04651 11.3372V12.5465C6.04651 12.7969 6.24964 13 6.5 13C6.75036 13 6.95349 12.7969 6.95349 12.5465V11.3372C6.95349 11.0868 6.75036 10.8837 6.5 10.8837ZM2.11628 6.5C2.11628 6.24964 1.91315 6.04651 1.66279 6.04651H0.453488C0.203125 6.04651 0 6.24964 0 6.5C0 6.75036 0.203125 6.95349 0.453488 6.95349H1.66279C1.91315 6.95349 2.11628 6.75036 2.11628 6.5ZM12.5465 6.04651H11.3372C11.0868 6.04651 10.8837 6.24964 10.8837 6.5C10.8837 6.75036 11.0868 6.95349 11.3372 6.95349H12.5465C12.7969 6.95349 13 6.75036 13 6.5C13 6.24964 12.7969 6.04651 12.5465 6.04651ZM9.92035 3.53313C10.0364 3.53313 10.1524 3.48885 10.241 3.40028L11.0963 2.54497C11.2734 2.36782 11.2734 2.08085 11.0963 1.90371C10.9191 1.72656 10.6322 1.72656 10.455 1.90371L9.59972 2.75902C9.42258 2.93616 9.42258 3.22313 9.59972 3.40028C9.68829 3.48885 9.80432 3.53313 9.92035 3.53313ZM2.75902 9.59972L1.90371 10.455C1.72656 10.6322 1.72656 10.9191 1.90371 11.0963C1.99228 11.1849 2.10831 11.2292 2.22434 11.2292C2.34037 11.2292 2.4564 11.1849 2.54497 11.0963L3.40028 10.241C3.57742 10.0638 3.57742 9.77687 3.40028 9.59972C3.22313 9.42258 2.93616 9.42258 2.75902 9.59972ZM2.75902 3.40028C2.84759 3.48885 2.96362 3.53313 3.07965 3.53313C3.19568 3.53313 3.31171 3.48885 3.40028 3.40028C3.57742 3.22313 3.57742 2.93616 3.40028 2.75902L2.54497 1.90371C2.36782 1.72656 2.08085 1.72656 1.90371 1.90371C1.72656 2.08085 1.72656 2.36782 1.90371 2.54497L2.75902 3.40028ZM10.241 9.59972C10.0638 9.42258 9.77687 9.42258 9.59972 9.59972C9.42258 9.77687 9.42258 10.0638 9.59972 10.241L10.455 11.0963C10.5436 11.1849 10.6596 11.2292 10.7757 11.2292C10.8917 11.2292 11.0077 11.1849 11.0963 11.0963C11.2734 10.9191 11.2734 10.6322 11.0963 10.455L10.241 9.59972Z" fill="white"/>
</svg>
