<svg width="32" height="32" viewBox="0 0 32 32" fill="none" xmlns="http://www.w3.org/2000/svg">
<path d="M25.2915 0.000269943C25.0883 0.00547672 24.8748 0.0315204 24.6665 0.0836031L2.99997 5.79189C1.24999 6.25022 0 7.85437 0 9.66685V28C0 30.1927 1.80728 32 3.99997 32H27.9998C30.1925 32 31.9997 30.1927 31.9997 28V10.6668C31.9997 8.47416 30.1925 6.66688 27.9998 6.66688H10.1666L25.3331 2.66691V5.33356H27.9998V2.66691C27.9998 1.16693 26.7237 -0.0205621 25.2915 0.000269943H25.2915ZM3.99997 9.33352H27.9998C28.755 9.33352 29.3331 9.91165 29.3331 10.6668V28C29.3331 28.7552 28.755 29.3334 27.9998 29.3334H3.99997C3.24477 29.3334 2.66664 28.7552 2.66664 28V10.6668C2.66664 9.91165 3.24477 9.33352 3.99997 9.33352ZM24.6665 17.3335C23.5623 17.3335 22.6665 18.2293 22.6665 19.3334C22.6665 20.4376 23.5623 21.3334 24.6665 21.3334C25.7706 21.3334 26.6664 20.4376 26.6664 19.3334C26.6664 18.2293 25.7706 17.3335 24.6665 17.3335Z" fill="black"/>
</svg>
