<svg width="13" height="20" viewBox="0 0 13 20" fill="none" xmlns="http://www.w3.org/2000/svg">
<path d="M6.08269 7.20004L0.0859375 9.732L6.08269 0.0859375V7.20004Z" fill="#EFCCC1"/>
<path fill-rule="evenodd" clip-rule="evenodd" d="M6.10587 0V7.21573L0.0234375 9.78387L6.10587 0ZM0.145987 9.67916L6.05707 7.18337V0.170906L0.145987 9.67916Z" fill="#7273D6"/>
<path d="M6.11205 7.20861L12.0781 9.7325L6.11205 0.117188V7.20861Z" fill="#B8FAF6"/>
<path fill-rule="evenodd" clip-rule="evenodd" d="M6.0851 0.03125V7.22443L12.1367 9.78454L6.0851 0.03125ZM12.0143 9.67977L6.1339 7.19209V0.202439L12.0143 9.67977Z" fill="#7273D6"/>
<path d="M6.09245 7.19141L0.0546875 9.78488L6.09245 13.4649V7.19141Z" fill="#88AAF1"/>
<path fill-rule="evenodd" clip-rule="evenodd" d="M6.11521 7.15625V13.5103L0 9.78299L6.11521 7.15625ZM0.106105 9.79052L6.06641 13.4234V7.23031L0.106105 9.79052Z" fill="#7273D6"/>
<path d="M6.12093 7.20312L12.1484 9.79659L6.12093 13.4767V7.20312Z" fill="#C9B3F5"/>
<path fill-rule="evenodd" clip-rule="evenodd" d="M6.09824 7.16406V13.5181L12.2031 9.79083L6.09824 7.16406ZM12.0972 9.79835L6.14703 13.4312V7.23818L12.0972 9.79835Z" fill="#7273D6"/>
<path d="M6.1642 14.713L0.0546875 11.2695L6.1642 19.6752V14.713Z" fill="#F0CDC2"/>
<path fill-rule="evenodd" clip-rule="evenodd" d="M0.0351562 11.2817L0.0668705 11.2461L6.18887 14.6965V19.7481L0.0351562 11.2817ZM0.140462 11.3436L6.14008 19.598V14.725L0.140462 11.3436Z" fill="#7273D6"/>
<path d="M6.16099 14.713L12.25 11.2695L6.16099 19.6752V14.713Z" fill="#C8B2F4"/>
<path fill-rule="evenodd" clip-rule="evenodd" d="M12.2734 11.2816L12.2417 11.2461L6.14027 14.6965V19.7483L12.2734 11.2816ZM12.1683 11.3437L6.18906 19.5978V14.725L12.1683 11.3437Z" fill="#7273D6"/>
</svg>