
<svg width="15" height="15" viewBox="0 0 15 15" fill="none" xmlns="http://www.w3.org/2000/svg">
<path d="M7.01223 2.41797H2.33605C1.98171 2.41797 1.64188 2.55873 1.39132 2.80929C1.14076 3.05985 1 3.39968 1 3.75402V13.1064C1 13.4607 1.14076 13.8006 1.39132 14.0511C1.64188 14.3017 1.98171 14.4424 2.33605 14.4424H11.6884C12.0428 14.4424 12.3826 14.3017 12.6331 14.0511C12.8837 13.8006 13.0245 13.4607 13.0245 13.1064V8.4302" stroke="#3D4351" stroke-linecap="round" stroke-linejoin="round"/>
<path d="M12.0221 1.41506C12.2878 1.1493 12.6483 1 13.0241 1C13.4 1 13.7604 1.1493 14.0262 1.41506C14.2919 1.68082 14.4412 2.04126 14.4412 2.4171C14.4412 2.79293 14.2919 3.15338 14.0262 3.41913L7.67991 9.76538L5.00781 10.4334L5.67584 7.7613L12.0221 1.41506Z" stroke="#3D4351" stroke-linecap="round" stroke-linejoin="round"/>
</svg>